<svg width="39" height="39" viewBox="0 0 39 39" fill="none" xmlns="http://www.w3.org/2000/svg">
<path d="M19.7241 38.4483C9.42586 38.4483 1 30.0224 1 19.7241C1 9.42586 9.42586 1 19.7241 1C30.0224 1 38.4483 9.42586 38.4483 19.7241C38.4483 30.0224 30.0224 38.4483 19.7241 38.4483Z" stroke="#001A34" stroke-miterlimit="10" stroke-linecap="round"/>
<path d="M15.7715 19.7244C15.7715 17.5399 17.5399 15.8755 19.6204 15.8755C21.8048 15.8755 23.4692 17.6439 23.4692 19.7244C23.4692 21.9089 21.7008 23.5732 19.6204 23.5732C17.5399 23.5732 15.7715 21.8049 15.7715 19.7244ZM15.8755 10.3623C14.8353 10.3623 14.2112 10.5704 13.587 10.7784C12.9629 10.9865 12.4428 11.2985 11.9226 11.8186C11.4025 12.3388 11.0905 12.8589 10.8824 13.483C10.6744 14.1072 10.4663 14.7313 10.4663 15.7715C10.4663 16.8117 10.3623 17.1238 10.3623 19.6204C10.3623 22.1169 10.3623 22.533 10.4663 23.4692C10.4663 24.5095 10.6744 25.1336 10.8824 25.7577C11.0905 26.3819 11.4025 26.902 11.9226 27.4221C12.4428 27.9422 12.9629 28.2543 13.587 28.4623C14.2112 28.6704 14.8353 28.8784 15.8755 28.8784C16.9158 28.8784 17.2278 28.9824 19.7244 28.9824C22.2209 28.9824 22.637 28.9824 23.5732 28.8784C24.6135 28.8784 25.2376 28.6704 25.8617 28.4623C26.4859 28.2543 27.006 27.9422 27.5261 27.4221C28.0462 26.902 28.3583 26.3819 28.5663 25.7577C28.7744 25.1336 28.9824 24.5095 28.9824 23.4692C28.9824 22.429 29.0864 22.1169 29.0864 19.6204C29.0864 17.1238 29.0864 16.7077 28.9824 15.7715C28.9824 14.7313 28.7744 14.1072 28.5663 13.483C28.3583 12.8589 28.0462 12.3388 27.5261 11.8186C27.006 11.2985 26.4859 10.9865 25.8617 10.7784C25.2376 10.5704 24.6135 10.3623 23.5732 10.3623C22.533 10.3623 22.2209 10.2583 19.7244 10.2583C17.1238 10.3623 16.8117 10.3623 15.8755 10.3623Z" stroke="#001A34" stroke-miterlimit="10" stroke-linecap="round"/>
<path d="M23.5732 14.7312C23.5732 15.3553 24.0934 15.8754 24.7175 15.8754C25.3416 15.8754 25.8617 15.3553 25.8617 14.7312C25.8617 14.107 25.3416 13.5869 24.7175 13.5869C24.0934 13.5869 23.5732 14.107 23.5732 14.7312Z" fill="#001A34"/>
</svg>
