<svg width="181" height="58" viewBox="0 0 181 58" fill="none" xmlns="http://www.w3.org/2000/svg">
<g clip-path="url(#clip0)">
<path d="M38.5147 0H0V26.9724H38.5147V0Z" fill="#F91155"/>
<path d="M69.8197 31.0278H31.2102V58.0002H69.8197V31.0278Z" fill="#06CA99"/>
<path d="M27.131 31.0278H0V58.0002H27.131V31.0278Z" fill="#005BFF"/>
<path d="M63.4639 14.4291C63.0844 17.6356 60.4282 20.1819 57.2028 20.6535C52.4597 21.2193 48.4754 17.2584 49.0446 12.6372C49.424 9.43071 52.0802 6.88437 55.3056 6.41283C60.0488 5.75266 64.033 9.71364 63.4639 14.4291ZM57.6772 0.0941274C49.1394 -0.754653 41.9298 6.31852 42.7836 14.9006C43.4476 21.2193 48.5702 26.312 54.9261 26.9722C63.4639 27.821 70.6735 20.7478 69.8197 12.1657C69.1557 5.75266 64.033 0.659981 57.6772 0.0941274Z" fill="#005BFF"/>
<path d="M87.8438 10.1852C86.8003 10.7511 85.9465 11.5999 85.3773 12.7316C84.8082 13.769 84.5236 14.995 84.5236 16.3153C84.5236 17.6356 84.8082 18.8616 85.3773 19.899C85.9465 20.9364 86.8003 21.7852 87.8438 22.4454C88.8873 23.0112 90.1205 23.3885 91.4486 23.3885C92.7767 23.3885 93.9151 23.1056 95.0534 22.4454C96.0969 21.8795 96.9507 21.0308 97.5199 19.9934C98.0891 18.956 98.3737 17.7299 98.3737 16.4096C98.3737 15.0893 98.0891 13.8633 97.5199 12.8259C96.9507 11.7885 96.0969 10.9397 95.0534 10.3738C94.0099 9.80799 92.7767 9.43075 91.4486 9.43075C90.0257 9.24214 88.8873 9.52506 87.8438 10.1852ZM96.0021 8.48766C97.3302 9.24214 98.4685 10.2795 99.2274 11.6942C99.9864 13.0145 100.366 14.6177 100.366 16.3153C100.366 18.0129 99.9864 19.6161 99.2274 20.9364C98.4685 22.2568 97.3302 23.3885 96.0021 24.143C94.674 24.8974 93.0613 25.2747 91.4486 25.2747C89.7411 25.2747 88.2233 24.8974 86.8952 24.143C85.5671 23.3885 84.4287 22.3511 83.6698 20.9364C82.9109 19.6161 82.5314 18.0129 82.5314 16.3153C82.5314 14.6177 82.9109 13.0145 83.6698 11.6942C84.4287 10.3738 85.5671 9.24214 86.8952 8.48766C88.2233 7.73319 89.8359 7.35596 91.4486 7.35596C93.0613 7.35596 94.5791 7.73319 96.0021 8.48766Z" fill="white"/>
<path d="M110.801 23.1054V24.8029H101.314V23.1997L108.145 15.1834H101.694V13.4858H110.327V15.0891L103.496 23.1054H110.801Z" fill="white"/>
<path d="M115.165 15.3725C114.501 15.7498 114.026 16.2213 113.647 16.8815C113.267 17.5416 113.078 18.2961 113.078 19.1449C113.078 19.9937 113.267 20.7481 113.647 21.4083C114.026 22.0685 114.501 22.54 115.165 22.9172C115.829 23.2945 116.588 23.4831 117.346 23.4831C118.2 23.4831 118.864 23.2945 119.528 22.9172C120.192 22.54 120.667 22.0685 121.046 21.4083C121.426 20.7481 121.615 19.9937 121.615 19.1449C121.615 18.2961 121.426 17.5416 121.046 16.8815C120.667 16.2213 120.192 15.7498 119.528 15.3725C118.864 14.9953 118.105 14.8067 117.346 14.8067C116.493 14.901 115.829 15.0896 115.165 15.3725ZM120.477 13.9579C121.426 14.4294 122.184 15.1839 122.659 16.127C123.228 17.0701 123.418 18.1075 123.418 19.2392C123.418 20.3709 123.133 21.4083 122.659 22.3514C122.09 23.2945 121.426 23.9546 120.477 24.5205C119.528 24.992 118.485 25.275 117.346 25.275C116.208 25.275 115.165 24.992 114.216 24.5205C113.267 24.0489 112.508 23.2945 112.034 22.3514C111.465 21.4083 111.275 20.3709 111.275 19.2392C111.275 18.1075 111.56 17.0701 112.034 16.127C112.603 15.1839 113.267 14.5237 114.216 13.9579C115.165 13.4863 116.208 13.2034 117.346 13.2034C118.58 13.1091 119.623 13.392 120.477 13.9579Z" fill="white"/>
<path d="M134.612 14.3349C135.371 15.0894 135.75 16.3154 135.75 17.9186V24.8032H133.948V18.2016C133.948 17.0699 133.663 16.3154 133.094 15.7495C132.525 15.1837 131.766 14.9008 130.817 14.9008C129.774 14.9008 128.825 15.278 128.161 16.0325C127.497 16.7869 127.117 18.013 127.117 19.6162V24.8032H125.315V13.4861H127.117V15.6552H127.212C127.592 14.8064 128.161 14.2406 128.825 13.769C129.489 13.2975 130.343 13.1089 131.291 13.1089C132.809 13.1089 133.853 13.5804 134.612 14.3349Z" fill="white"/>
<path d="M96.761 50.2667H94.674L85.2825 36.4033H85.1876V50.2667H83.2903V33.1968H85.3773L94.7689 47.0602H94.8637V33.1968H96.761V50.2667Z" fill="white"/>
<path d="M102.453 41.1186C101.789 41.6845 101.314 42.5332 101.22 43.5706H108.619C108.524 42.5332 108.145 41.6845 107.575 41.1186C106.911 40.5527 106.058 40.2698 105.014 40.2698C103.971 40.2698 103.117 40.5527 102.453 41.1186ZM109.188 40.2698C110.137 41.4015 110.611 42.8162 110.611 44.5137V44.7967H101.22C101.22 46.0227 101.599 47.0601 102.358 47.7202C103.117 48.4747 104.066 48.8519 105.299 48.8519C106.247 48.8519 107.006 48.6633 107.575 48.2861C108.145 47.9088 108.714 47.343 109.188 46.7771L110.421 47.9088C109.852 48.6633 109.188 49.3235 108.429 49.795C107.67 50.3609 106.627 50.5495 105.299 50.5495C104.16 50.5495 103.117 50.2666 102.168 49.795C101.314 49.3235 100.556 48.569 100.081 47.7202C99.6069 46.7771 99.3223 45.7397 99.3223 44.608C99.3223 43.382 99.6069 42.3446 100.081 41.4958C100.556 40.5528 101.22 39.8926 102.073 39.3267C102.927 38.8552 103.971 38.5723 105.109 38.5723C106.911 38.6666 108.24 39.1381 109.188 40.2698Z" fill="white"/>
<path d="M128.256 38.9492L124.366 50.2663H122.754L119.528 41.3069L116.398 50.2663H114.785L110.896 38.9492H112.888L115.639 48.0029L118.675 38.9492H120.477L123.513 48.0029L126.264 38.9492H128.256Z" fill="white"/>
<path d="M143.908 33.8568L143.054 35.6487C141.916 34.9885 140.683 34.7056 139.545 34.7056C138.691 34.7056 138.027 34.8942 137.647 35.2714C137.173 35.6487 136.983 36.1202 136.983 36.6861C136.983 37.2519 137.173 37.6292 137.458 38.0064C137.742 38.3836 138.216 38.8552 138.88 39.2324L141.726 41.3072C142.675 41.9674 143.434 42.7218 143.908 43.4763C144.383 44.2308 144.667 45.0796 144.667 46.0227C144.667 47.5316 144.193 48.6633 143.244 49.4178C142.296 50.1723 140.967 50.6438 139.355 50.6438C138.406 50.6438 137.458 50.4552 136.509 50.1723C135.56 49.8893 134.706 49.5121 133.948 49.0405L134.896 47.2487C136.414 48.1918 137.932 48.6633 139.45 48.6633C140.493 48.6633 141.347 48.3804 141.916 47.9088C142.485 47.4373 142.77 46.7771 142.77 46.0227C142.77 45.4568 142.58 44.8909 142.296 44.4194C141.916 43.9479 141.347 43.382 140.588 42.8162L137.742 40.7414C136.888 40.0812 136.319 39.5153 135.845 38.8552C135.371 38.195 135.181 37.4405 135.181 36.5918C135.181 35.3657 135.56 34.4227 136.414 33.7625C137.268 33.008 138.406 32.7251 139.829 32.7251C140.873 32.8194 142.39 33.1966 143.908 33.8568Z" fill="white"/>
<path d="M153.869 50.2667L148.651 44.5138V50.2667H146.849V33.1968H148.651V43.948L153.395 38.9496H155.766L150.549 44.1366L156.335 50.2667H153.869Z" fill="white"/>
<path d="M158.138 38.9497H159.94V50.2668H158.138V38.9497ZM160.035 33.5741C160.32 33.857 160.509 34.2342 160.509 34.6115C160.509 34.9887 160.32 35.366 160.035 35.6489C159.75 35.9318 159.371 36.1204 158.992 36.1204C158.612 36.1204 158.233 35.9318 157.948 35.6489C157.663 35.366 157.474 34.9887 157.474 34.6115C157.474 34.2342 157.663 33.857 157.948 33.5741C158.233 33.2912 158.612 33.1025 158.992 33.1025C159.371 33.1025 159.75 33.2912 160.035 33.5741Z" fill="white"/>
<path d="M164.873 33.1968H163.071V50.2667H164.873V33.1968Z" fill="white"/>
<path d="M169.996 33.1968H168.193V50.2667H169.996V33.1968Z" fill="white"/>
<path d="M174.265 50.2666C173.411 50.078 172.747 49.7007 172.083 49.3235L172.937 47.7202C174.17 48.569 175.498 48.9462 176.826 48.9462C177.585 48.9462 178.154 48.8519 178.534 48.569C178.913 48.2861 179.103 47.9088 179.103 47.4373C179.103 47.0601 179.008 46.7771 178.723 46.4942C178.439 46.2113 178.059 46.0227 177.585 45.7397L175.498 44.7023C173.885 43.9479 173.031 42.9105 173.031 41.5901C173.031 40.6471 173.411 39.8926 174.075 39.3267C174.739 38.7609 175.688 38.5723 176.921 38.5723C178.154 38.5723 179.482 38.8552 180.715 39.421L179.956 41.0243C178.818 40.4584 177.775 40.2698 176.826 40.2698C176.162 40.2698 175.688 40.3641 175.403 40.5528C175.024 40.7414 174.929 41.1186 174.929 41.4958C174.929 41.8731 175.024 42.156 175.308 42.4389C175.593 42.7219 175.972 43.0048 176.541 43.1934L178.628 44.1365C179.387 44.5137 180.051 44.9853 180.431 45.4568C180.81 45.9284 181.095 46.5885 181.095 47.343C181.095 48.3804 180.715 49.2292 179.956 49.795C179.198 50.3609 178.154 50.6438 176.826 50.6438C175.877 50.6438 175.024 50.5495 174.265 50.2666Z" fill="white"/>
</g>
<defs>
<clipPath id="clip0">
<rect width="181" height="58" fill="white"/>
</clipPath>
</defs>
</svg>
