<svg width="107" height="24" viewBox="0 0 107 24" fill="none" xmlns="http://www.w3.org/2000/svg">
<path d="M12.8547 0.0538436C5.49317 -0.641409 -0.641409 5.49317 0.0538436 12.8547C0.585507 18.3349 5.00241 22.7518 10.4826 23.2835C17.8441 24.0196 24.0196 17.8441 23.2835 10.4826C22.7518 5.0433 18.3349 0.626404 12.8547 0.0538436ZM17.8441 12.4866C17.476 15.2676 15.2676 17.476 12.4866 17.8441C8.43777 18.3758 5.0024 14.9404 5.49317 10.8507C5.86125 8.06969 8.06969 5.86125 10.8507 5.49317C14.9404 5.0024 18.3758 8.43777 17.8441 12.4866Z" fill="#005BFF"/>
<path d="M44.7136 17.3941H35.43L47.2493 1.81225C47.6582 1.28058 47.2902 0.544434 46.6358 0.544434H29.5408C27.864 0.544434 26.5144 2.09853 26.8825 3.81621C27.1278 5.08402 28.3548 5.98376 29.6635 5.98376H37.2703L25.4102 21.5656C25.0421 22.0973 25.3693 22.7925 26.0236 22.7925H44.5909C45.8997 22.7925 47.0857 21.9337 47.372 20.625C47.74 18.9073 46.3904 17.3941 44.7136 17.3941Z" fill="#005BFF"/>
<path d="M103.687 0.585401C102.419 0.871682 101.561 2.0168 101.561 3.32551V12.4047L86.8376 0.708093C86.306 0.299121 85.5698 0.667196 85.5698 1.32155V20.0525C85.5698 21.3612 86.4287 22.5063 87.6965 22.7926C89.4551 23.1607 91.0092 21.811 91.0092 20.1343V10.9733L105.732 22.6699C106.264 23.0789 107 22.7108 107 22.0564V3.24372C107 1.56693 105.446 0.217326 103.687 0.585401Z" fill="#005BFF"/>
<path d="M65.3258 0.0131836C56.2875 0.0131836 49.0078 5.24803 49.0078 11.6689C49.0078 18.1306 56.3284 23.3246 65.3258 23.3246C74.3641 23.3246 81.6438 18.0897 81.6438 11.6689C81.6438 5.24803 74.3232 0.0131836 65.3258 0.0131836ZM65.3258 17.8853C59.1094 17.8853 54.4471 14.6135 54.4471 11.6689C54.4471 8.72429 59.1094 5.45251 65.3258 5.45251C71.5422 5.45251 76.2044 8.72429 76.2044 11.6689C76.2044 14.6135 71.5422 17.8853 65.3258 17.8853Z" fill="#005BFF"/>
</svg>
