<svg width="39" height="39" viewBox="0 0 39 39" fill="none" xmlns="http://www.w3.org/2000/svg">
<path d="M19.2759 38.4483C8.97762 38.4483 0.551758 30.0224 0.551758 19.7241C0.551758 9.42586 8.97762 1 19.2759 1C29.5742 1 38 9.42586 38 19.7241C38 30.0224 29.5742 38.4483 19.2759 38.4483Z" stroke="#001A34" stroke-miterlimit="10" stroke-linecap="round"/>
<path d="M28.1176 15.2514C27.9095 14.4192 27.2854 13.795 26.4532 13.587C24.9969 13.1709 19.2756 13.1709 19.2756 13.1709C19.2756 13.1709 13.5544 13.1709 12.098 13.587C11.2659 13.795 10.6417 14.4192 10.4337 15.2514C10.0176 16.7077 10.0176 19.7243 10.0176 19.7243C10.0176 19.7243 10.0176 22.741 10.4337 24.1973C10.6417 25.0295 11.2659 25.6537 12.098 25.8617C13.5544 26.2778 19.2756 26.2778 19.2756 26.2778C19.2756 26.2778 24.9969 26.2778 26.4532 25.8617C27.2854 25.6537 27.9095 25.0295 28.1176 24.1973C28.5337 22.741 28.5337 19.7243 28.5337 19.7243C28.5337 19.7243 28.5337 16.7077 28.1176 15.2514ZM17.4032 22.4289V16.9157L22.1883 19.6203L17.4032 22.4289Z" stroke="#001A34" stroke-miterlimit="10" stroke-linecap="round"/>
</svg>
